<?xml version="1.0" encoding="UTF-8"?>
<svg xmlns="http://www.w3.org/2000/svg" width="5142.0" height="15360.0" viewBox="0 0 5142.0 15360.0">
  <rect width="100%" height="100%" fill="#fff"/>
  <g transform="translate(0,960) scale(1,-1)">
    <g transform="translate(0, -0.0)">
      <path d="M142 160 182 280H499L539 160ZM444 720 680 0H522L344 570L166 0H20L250 720ZM300.0 780 330.0 940H538.0L388.0 780ZM1282.0 160 1322.0 280H1639.0L1679.0 160ZM1584.0 720 1820.0 0H1662.0L1484.0 570L1306.0 0H1160.0L1390.0 720ZM1330.0 780 1406.0 940H1574.0L1650.0 780H1532.0L1488.0 871L1444.0 780ZM2422.0 160 2462.0 280H2779.0L2819.0 160ZM2724.0 720 2960.0 0H2802.0L2624.0 570L2446.0 0H2300.0L2530.0 720ZM2470.0 940H2584.0L2628.0 849L2672.0 940H2790.0L2714.0 780H2546.0ZM3562.0 160 3602.0 280H3919.0L3959.0 160ZM3864.0 720 4100.0 0H3942.0L3764.0 570L3586.0 0H3440.0L3670.0 720ZM3770.0 778Q3722.0 778 3684.0 791.0Q3646.0 804 3620.0 840.0Q3594.0 876 3594.0 940H3726.0Q3726.0 922 3730.0 912.0Q3734.0 902 3744.0 895.0Q3754.0 888 3770.0 888Q3786.0 888 3796.0 895.0Q3806.0 902 3810.0 912.0Q3814.0 922 3814.0 940H3946.0Q3946.0 876 3920.0 840.0Q3894.0 804 3856.0 791.0Q3818.0 778 3770.0 778Z" fill="#000"/>
    </g>
    <g transform="translate(0, -1200.0)">
      <path d="M58 0V720H524V594H208V426H492V302H208V126H524V0ZM180.0 778Q138.0 778 113.0 800.0Q88.0 822 88.0 859V867Q88.0 904 113.0 926.0Q138.0 948 180.0 948Q222.0 948 247.0 926.0Q272.0 904 272.0 867V859Q272.0 822 247.0 800.0Q222.0 778 180.0 778ZM400.0 778Q358.0 778 333.0 800.0Q308.0 822 308.0 859V867Q308.0 904 333.0 926.0Q358.0 948 400.0 948Q442.0 948 467.0 926.0Q492.0 904 492.0 867V859Q492.0 822 467.0 800.0Q442.0 778 400.0 778ZM1068.0 0V720H1218.0V0ZM1033.0 778Q991.0 778 966.0 800.0Q941.0 822 941.0 859V867Q941.0 904 966.0 926.0Q991.0 948 1033.0 948Q1075.0 948 1100.0 926.0Q1125.0 904 1125.0 867V859Q1125.0 822 1100.0 800.0Q1075.0 778 1033.0 778ZM1253.0 778Q1211.0 778 1186.0 800.0Q1161.0 822 1161.0 859V867Q1161.0 904 1186.0 926.0Q1211.0 948 1253.0 948Q1295.0 948 1320.0 926.0Q1345.0 904 1345.0 867V859Q1345.0 822 1320.0 800.0Q1295.0 778 1253.0 778ZM2098.0 -12Q1998.0 -12 1922.0 32.0Q1846.0 76 1802.0 158.0Q1758.0 240 1758.0 360Q1758.0 480 1802.0 562.0Q1846.0 644 1922.0 688.0Q1998.0 732 2098.0 732Q2198.0 732 2274.0 688.0Q2350.0 644 2394.0 562.0Q2438.0 480 2438.0 360Q2438.0 240 2394.0 158.0Q2350.0 76 2274.0 32.0Q2198.0 -12 2098.0 -12ZM2098.0 116Q2158.0 116 2198.0 144.0Q2238.0 172 2261.0 225.0Q2284.0 278 2284.0 360Q2284.0 447 2261.0 500.0Q2238.0 553 2198.0 578.5Q2158.0 604 2098.0 604Q2038.0 604 1998.0 578.5Q1958.0 553 1935.0 500.0Q1912.0 447 1912.0 360Q1912.0 278 1935.0 225.0Q1958.0 172 1998.0 144.0Q2038.0 116 2098.0 116ZM1988.0 778Q1946.0 778 1921.0 800.0Q1896.0 822 1896.0 859V867Q1896.0 904 1921.0 926.0Q1946.0 948 1988.0 948Q2030.0 948 2055.0 926.0Q2080.0 904 2080.0 867V859Q2080.0 822 2055.0 800.0Q2030.0 778 1988.0 778ZM2208.0 778Q2166.0 778 2141.0 800.0Q2116.0 822 2116.0 859V867Q2116.0 904 2141.0 926.0Q2166.0 948 2208.0 948Q2250.0 948 2275.0 926.0Q2300.0 904 2300.0 867V859Q2300.0 822 2275.0 800.0Q2250.0 778 2208.0 778ZM3258.0 -10Q3198.0 -10 3134.0 11.5Q3070.0 33 3021.0 92.0Q2972.0 151 2972.0 285V720H3122.0V299Q3122.0 209 3143.5 179.0Q3165.0 149 3193.5 136.5Q3222.0 124 3258.0 124Q3294.0 124 3322.5 136.5Q3351.0 149 3372.5 179.0Q3394.0 209 3394.0 299V720H3544.0V285Q3544.0 151 3495.0 92.0Q3446.0 33 3382.0 11.5Q3318.0 -10 3258.0 -10ZM3148.0 778Q3106.0 778 3081.0 800.0Q3056.0 822 3056.0 859V867Q3056.0 904 3081.0 926.0Q3106.0 948 3148.0 948Q3190.0 948 3215.0 926.0Q3240.0 904 3240.0 867V859Q3240.0 822 3215.0 800.0Q3190.0 778 3148.0 778ZM3368.0 778Q3326.0 778 3301.0 800.0Q3276.0 822 3276.0 859V867Q3276.0 904 3301.0 926.0Q3326.0 948 3368.0 948Q3410.0 948 3435.0 926.0Q3460.0 904 3460.0 867V859Q3460.0 822 3435.0 800.0Q3410.0 778 3368.0 778Z" fill="#000"/>
    </g>
    <g transform="translate(0, -2400.0)">
      <path d="M184 -8Q144 -8 108.0 7.0Q72 22 49.0 56.0Q26 90 26 138Q26 198 57.0 236.0Q88 274 139.0 289.0Q190 304 282 304H358V204H296Q242 204 216.0 200.5Q190 197 175.0 182.5Q160 168 160 148Q160 134 165.5 124.0Q171 114 186.0 107.0Q201 100 225 100Q253 100 275.5 109.0Q298 118 315.0 141.0Q332 164 332 196V320Q332 352 320.0 370.0Q308 388 291.0 395.0Q274 402 254 402Q232 402 215.5 395.5Q199 389 190.5 374.5Q182 360 182 340H48Q48 384 72.0 423.5Q96 463 143.0 487.5Q190 512 254 512Q322 512 370.0 487.0Q418 462 442.0 417.0Q466 372 466 300V86Q466 40 480 0H344Q332 24 332 60Q316 40 292.5 23.5Q269 7 244.5 0.0Q220 -7 184 -8ZM199.0 560 229.0 720H437.0L287.0 560ZM1017.0 0V500H1159.0V0ZM969.0 500 999.0 660H1207.0L1057.0 500ZM1936.0 -12Q1860.0 -12 1801.0 22.0Q1742.0 56 1711.0 117.0Q1680.0 178 1680.0 250Q1680.0 322 1711.0 383.0Q1742.0 444 1801.0 478.0Q1860.0 512 1936.0 512Q2012.0 512 2071.0 478.0Q2130.0 444 2161.0 383.0Q2192.0 322 2192.0 250Q2192.0 178 2161.0 117.0Q2130.0 56 2071.0 22.0Q2012.0 -12 1936.0 -12ZM1936.0 108Q1972.0 108 1996.0 126.0Q2020.0 144 2033.0 175.0Q2046.0 206 2046.0 250Q2046.0 294 2033.0 325.0Q2020.0 356 1996.0 374.0Q1972.0 392 1936.0 392Q1900.0 392 1876.0 374.0Q1852.0 356 1839.0 325.0Q1826.0 294 1826.0 250Q1826.0 206 1839.0 175.0Q1852.0 144 1876.0 126.0Q1900.0 108 1936.0 108ZM1776.0 560 1852.0 720H2020.0L2096.0 560H1978.0L1934.0 651L1890.0 560ZM3160.0 500V0H3018.0V84Q3006.0 58 2985.0 35.0Q2964.0 12 2934.0 0.0Q2904.0 -12 2874.0 -10Q2816.0 -10 2782.0 12.0Q2748.0 34 2729.0 74.0Q2710.0 114 2710.0 186V500H2852.0V200Q2852.0 172 2858.5 155.0Q2865.0 138 2880.5 128.0Q2896.0 118 2922.0 118Q2946.0 118 2968.0 128.0Q2990.0 138 3004.0 163.0Q3018.0 188 3018.0 240V500ZM2776.0 560 2852.0 720H3020.0L3096.0 560H2978.0L2934.0 651L2890.0 560Z" fill="#000"/>
    </g>
    <g transform="translate(0, -3600.0)">
      <path d="M142 160 182 280H499L539 160ZM444 720 680 0H522L344 570L166 0H20L250 720ZM190.0 780 266.0 940H434.0L510.0 780H392.0L348.0 871L304.0 780ZM231.0 940 261.0 1100H469.0L319.0 940ZM1282.0 160 1322.0 280H1639.0L1679.0 160ZM1584.0 720 1820.0 0H1662.0L1484.0 570L1306.0 0H1160.0L1390.0 720ZM1330.0 940H1444.0L1488.0 849L1532.0 940H1650.0L1574.0 780H1406.0ZM1371.0 940 1401.0 1100H1609.0L1459.0 940ZM2338.0 0V720H2804.0V594H2488.0V426H2772.0V302H2488.0V126H2804.0V0ZM2460.0 778Q2418.0 778 2393.0 800.0Q2368.0 822 2368.0 859V867Q2368.0 904 2393.0 926.0Q2418.0 948 2460.0 948Q2502.0 948 2527.0 926.0Q2552.0 904 2552.0 867V859Q2552.0 822 2527.0 800.0Q2502.0 778 2460.0 778ZM2680.0 778Q2638.0 778 2613.0 800.0Q2588.0 822 2588.0 859V867Q2588.0 904 2613.0 926.0Q2638.0 948 2680.0 948Q2722.0 948 2747.0 926.0Q2772.0 904 2772.0 867V859Q2772.0 822 2747.0 800.0Q2722.0 778 2680.0 778ZM2451.0 948 2481.0 1108H2689.0L2539.0 948ZM3628.0 -10Q3568.0 -10 3504.0 11.5Q3440.0 33 3391.0 92.0Q3342.0 151 3342.0 285V720H3492.0V299Q3492.0 209 3513.5 179.0Q3535.0 149 3563.5 136.5Q3592.0 124 3628.0 124Q3664.0 124 3692.5 136.5Q3721.0 149 3742.5 179.0Q3764.0 209 3764.0 299V720H3914.0V285Q3914.0 151 3865.0 92.0Q3816.0 33 3752.0 11.5Q3688.0 -10 3628.0 -10ZM3628.0 778Q3580.0 778 3542.0 791.0Q3504.0 804 3478.0 840.0Q3452.0 876 3452.0 940H3584.0Q3584.0 922 3588.0 912.0Q3592.0 902 3602.0 895.0Q3612.0 888 3628.0 888Q3644.0 888 3654.0 895.0Q3664.0 902 3668.0 912.0Q3672.0 922 3672.0 940H3804.0Q3804.0 876 3778.0 840.0Q3752.0 804 3714.0 791.0Q3676.0 778 3628.0 778ZM3509.0 940 3539.0 1100H3747.0L3597.0 940Z" fill="#000"/>
    </g>
    <g transform="translate(0, -4800.0)">
      <path d="M366 -12Q270 -12 195.0 32.0Q120 76 80.0 158.0Q40 240 40 360Q40 480 80.0 562.0Q120 644 195.0 688.0Q270 732 366 732Q456 732 518.0 701.0Q580 670 612.0 618.0Q644 566 644 510H500Q500 534 487.0 556.0Q474 578 446.0 593.0Q418 608 366 608Q310 608 272.0 581.5Q234 555 214.0 500.0Q194 445 194 360Q194 278 214.0 223.0Q234 168 272.0 140.0Q310 112 366 112Q418 112 446.0 127.0Q474 142 487.0 164.0Q500 186 500 210H644Q644 154 612.0 102.0Q580 50 518.0 19.0Q456 -12 366 -12ZM339.0 -228Q295.0 -228 256.0 -216V-136Q280.0 -144 305.0 -144Q329.0 -144 337.5 -137.0Q346.0 -130 346.0 -120Q346.0 -104 331.0 -96.5Q316.0 -89 282.0 -89V-59L328.0 10L438.0 0L406.0 -49Q438.0 -57 457.0 -78.5Q476.0 -100 476.0 -132Q476.0 -176 441.5 -202.0Q407.0 -228 339.0 -228ZM1439.0 -10Q1363.0 -10 1305.5 10.0Q1248.0 30 1206.0 80.0Q1164.0 130 1162.0 210H1308.0Q1308.0 180 1324.5 157.0Q1341.0 134 1372.0 123.0Q1403.0 112 1439.0 112Q1475.0 112 1502.5 120.5Q1530.0 129 1548.0 151.0Q1566.0 173 1566.0 201Q1566.0 225 1557.0 241.0Q1548.0 257 1529.0 267.0Q1510.0 277 1472.0 283L1364.0 300Q1308.0 309 1261.0 332.0Q1214.0 355 1188.0 400.0Q1162.0 445 1162.0 500Q1162.0 573 1197.5 624.5Q1233.0 676 1295.0 703.0Q1357.0 730 1434.0 730Q1498.0 730 1556.0 708.0Q1614.0 686 1654.0 636.0Q1694.0 586 1696.0 510H1550.0Q1550.0 549 1532.0 570.5Q1514.0 592 1489.0 600.0Q1464.0 608 1434.0 608Q1404.0 608 1376.0 599.0Q1348.0 590 1331.0 570.0Q1314.0 550 1314.0 522Q1314.0 500 1324.5 483.0Q1335.0 466 1351.5 458.0Q1368.0 450 1406.0 444L1514.0 427Q1562.0 419 1609.0 399.0Q1656.0 379 1687.0 334.0Q1718.0 289 1718.0 221Q1718.0 149 1682.5 94.5Q1647.0 40 1582.0 15.0Q1517.0 -10 1439.0 -10ZM1860.0 -215Q1818.0 -215 1793.0 -193.0Q1768.0 -171 1768.0 -134V-126Q1768.0 -89 1793.0 -67.0Q1818.0 -45 1860.0 -45Q1902.0 -45 1927.0 -67.0Q1952.0 -89 1952.0 -126V-134Q1952.0 -171 1927.0 -193.0Q1902.0 -215 1860.0 -215ZM2240.0 0V68L2590.0 592H2240.0V720H2790.0V652L2440.0 128H2790.0V0ZM2930.0 -215Q2888.0 -215 2863.0 -193.0Q2838.0 -171 2838.0 -134V-126Q2838.0 -89 2863.0 -67.0Q2888.0 -45 2930.0 -45Q2972.0 -45 2997.0 -67.0Q3022.0 -89 3022.0 -126V-134Q3022.0 -171 2997.0 -193.0Q2972.0 -215 2930.0 -215ZM3328.0 0V720H3478.0V435H3742.0V720H3892.0V0H3742.0V305H3478.0V0ZM4050.0 -215Q4008.0 -215 3983.0 -193.0Q3958.0 -171 3958.0 -134V-126Q3958.0 -89 3983.0 -67.0Q4008.0 -45 4050.0 -45Q4092.0 -45 4117.0 -67.0Q4142.0 -89 4142.0 -126V-134Q4142.0 -171 4117.0 -193.0Q4092.0 -215 4050.0 -215Z" fill="#000"/>
    </g>
    <g transform="translate(0, -6000.0)">
      <path d="M380.0 -12Q280.0 -12 204.0 32.0Q128.0 76 84.0 158.0Q40.0 240 40.0 360Q40.0 480 84.0 562.0Q128.0 644 204.0 688.0Q280.0 732 380.0 732Q480.0 732 556.0 688.0Q632.0 644 676.0 562.0Q720.0 480 720.0 360Q720.0 240 676.0 158.0Q632.0 76 556.0 32.0Q480.0 -12 380.0 -12ZM380.0 116Q440.0 116 480.0 144.0Q520.0 172 543.0 225.0Q566.0 278 566.0 360Q566.0 447 543.0 500.0Q520.0 553 480.0 578.5Q440.0 604 380.0 604Q320.0 604 280.0 578.5Q240.0 553 217.0 500.0Q194.0 447 194.0 360Q194.0 278 217.0 225.0Q240.0 172 280.0 144.0Q320.0 116 380.0 116ZM780.0 200V280H1140.0V200ZM1480.0 -12Q1404.0 -12 1345.0 22.0Q1286.0 56 1255.0 117.0Q1224.0 178 1224.0 250Q1224.0 322 1255.0 383.0Q1286.0 444 1345.0 478.0Q1404.0 512 1480.0 512Q1556.0 512 1615.0 478.0Q1674.0 444 1705.0 383.0Q1736.0 322 1736.0 250Q1736.0 178 1705.0 117.0Q1674.0 56 1615.0 22.0Q1556.0 -12 1480.0 -12ZM1480.0 108Q1516.0 108 1540.0 126.0Q1564.0 144 1577.0 175.0Q1590.0 206 1590.0 250Q1590.0 294 1577.0 325.0Q1564.0 356 1540.0 374.0Q1516.0 392 1480.0 392Q1444.0 392 1420.0 374.0Q1396.0 356 1383.0 325.0Q1370.0 294 1370.0 250Q1370.0 206 1383.0 175.0Q1396.0 144 1420.0 126.0Q1444.0 108 1480.0 108ZM1780.0 200V280H2140.0V200ZM2580.0 -12Q2480.0 -12 2404.0 32.0Q2328.0 76 2284.0 158.0Q2240.0 240 2240.0 360Q2240.0 480 2284.0 562.0Q2328.0 644 2404.0 688.0Q2480.0 732 2580.0 732Q2680.0 732 2756.0 688.0Q2832.0 644 2876.0 562.0Q2920.0 480 2920.0 360Q2920.0 240 2876.0 158.0Q2832.0 76 2756.0 32.0Q2680.0 -12 2580.0 -12ZM2580.0 116Q2640.0 116 2680.0 144.0Q2720.0 172 2743.0 225.0Q2766.0 278 2766.0 360Q2766.0 447 2743.0 500.0Q2720.0 553 2680.0 578.5Q2640.0 604 2580.0 604Q2520.0 604 2480.0 578.5Q2440.0 553 2417.0 500.0Q2394.0 447 2394.0 360Q2394.0 278 2417.0 225.0Q2440.0 172 2480.0 144.0Q2520.0 116 2580.0 116ZM2980.0 200V280H3540.0V200ZM3680.0 -12Q3604.0 -12 3545.0 22.0Q3486.0 56 3455.0 117.0Q3424.0 178 3424.0 250Q3424.0 322 3455.0 383.0Q3486.0 444 3545.0 478.0Q3604.0 512 3680.0 512Q3756.0 512 3815.0 478.0Q3874.0 444 3905.0 383.0Q3936.0 322 3936.0 250Q3936.0 178 3905.0 117.0Q3874.0 56 3815.0 22.0Q3756.0 -12 3680.0 -12ZM3680.0 108Q3716.0 108 3740.0 126.0Q3764.0 144 3777.0 175.0Q3790.0 206 3790.0 250Q3790.0 294 3777.0 325.0Q3764.0 356 3740.0 374.0Q3716.0 392 3680.0 392Q3644.0 392 3620.0 374.0Q3596.0 356 3583.0 325.0Q3570.0 294 3570.0 250Q3570.0 206 3583.0 175.0Q3596.0 144 3620.0 126.0Q3644.0 108 3680.0 108ZM3980.0 200V280H4540.0V200Z" fill="#000"/>
    </g>
    <g transform="translate(0, -7200.0)">
      <path d="M50.0 200V320H930.0V200ZM1030.0 200V320H1910.0V200Z" fill="#000"/>
    </g>
    <g transform="translate(0, -8400.0)">
      <path d="M142 160 182 280H499L539 160ZM444 720 680 0H522L344 570L166 0H20L250 720ZM750.0 560 780.0 720H988.0L838.0 560ZM1198.0 0V720H1664.0V594H1348.0V426H1632.0V302H1348.0V126H1664.0V0ZM1758.0 560 1788.0 720H1996.0L1846.0 560ZM2784.0 0H2640.0V490L2352.0 0H2206.0V720H2350.0V230L2638.0 720H2784.0ZM2892.0 560 2922.0 720H3130.0L2980.0 560ZM3662.0 -12Q3562.0 -12 3486.0 32.0Q3410.0 76 3366.0 158.0Q3322.0 240 3322.0 360Q3322.0 480 3366.0 562.0Q3410.0 644 3486.0 688.0Q3562.0 732 3662.0 732Q3762.0 732 3838.0 688.0Q3914.0 644 3958.0 562.0Q4002.0 480 4002.0 360Q4002.0 240 3958.0 158.0Q3914.0 76 3838.0 32.0Q3762.0 -12 3662.0 -12ZM3662.0 116Q3722.0 116 3762.0 144.0Q3802.0 172 3825.0 225.0Q3848.0 278 3848.0 360Q3848.0 447 3825.0 500.0Q3802.0 553 3762.0 578.5Q3722.0 604 3662.0 604Q3602.0 604 3562.0 578.5Q3522.0 553 3499.0 500.0Q3476.0 447 3476.0 360Q3476.0 278 3499.0 225.0Q3522.0 172 3562.0 144.0Q3602.0 116 3662.0 116ZM4092.0 560 4122.0 720H4330.0L4180.0 560ZM4577.0 0V130H4672.0Q4696.0 130 4708.0 137.0Q4720.0 144 4727.0 155.0Q4734.0 166 4740.0 180L4498.0 720H4658.0L4824.0 328L4980.0 720H5126.0L4897.0 156Q4872.0 94 4843.0 60.0Q4814.0 26 4780.0 13.0Q4746.0 0 4698.0 0ZM5192.0 560 5222.0 720H5430.0L5280.0 560Z" fill="#000"/>
    </g>
    <g transform="translate(0, -9600.0)">
      <path d="M622.0 0H472.0V280H365.0L201.0 0H34.0L210.0 292Q182.0 300 144.0 328.0Q106.0 356 83.5 398.0Q61.0 440 61.0 500Q61.0 564 90.0 614.0Q119.0 664 177.0 692.0Q235.0 720 311.0 720H622.0ZM472.0 404V596H327.0Q283.0 596 259.0 583.0Q235.0 570 223.0 549.0Q211.0 528 211.0 500Q211.0 472 223.0 451.5Q235.0 431 259.0 417.5Q283.0 404 327.0 404ZM340.0 0Q292.0 0 254.0 13.0Q216.0 26 190.0 62.0Q164.0 98 164.0 162H296.0Q296.0 144 300.0 134.0Q304.0 124 314.0 117.0Q324.0 110 340.0 110Q356.0 110 366.0 117.0Q376.0 124 380.0 134.0Q384.0 144 384.0 162H516.0Q516.0 98 490.0 62.0Q464.0 26 426.0 13.0Q388.0 0 340.0 0ZM1178.0 0V720H1324.0V430H1474.0V300H1324.0V0ZM1740.0 -12Q1640.0 -12 1564.0 32.0Q1488.0 76 1444.0 158.0Q1400.0 240 1400.0 360Q1400.0 480 1444.0 562.0Q1488.0 644 1564.0 688.0Q1640.0 732 1740.0 732Q1840.0 732 1916.0 688.0Q1992.0 644 2036.0 562.0Q2080.0 480 2080.0 360Q2080.0 240 2036.0 158.0Q1992.0 76 1916.0 32.0Q1840.0 -12 1740.0 -12ZM1740.0 116Q1800.0 116 1840.0 144.0Q1880.0 172 1903.0 225.0Q1926.0 278 1926.0 360Q1926.0 447 1903.0 500.0Q1880.0 553 1840.0 578.5Q1800.0 604 1740.0 604Q1680.0 604 1640.0 578.5Q1600.0 553 1577.0 500.0Q1554.0 447 1554.0 360Q1554.0 278 1577.0 225.0Q1600.0 172 1640.0 144.0Q1680.0 116 1740.0 116ZM2320.0 558Q2272.0 558 2234.0 571.0Q2196.0 584 2170.0 620.0Q2144.0 656 2144.0 720H2276.0Q2276.0 702 2280.0 692.0Q2284.0 682 2294.0 675.0Q2304.0 668 2320.0 668Q2336.0 668 2346.0 675.0Q2356.0 682 2360.0 692.0Q2364.0 702 2364.0 720H2496.0Q2496.0 656 2470.0 620.0Q2444.0 584 2406.0 571.0Q2368.0 558 2320.0 558ZM2618.0 0V720H3084.0V594H2768.0V426H3052.0V302H2768.0V126H3084.0V0ZM2750.0 778Q2708.0 778 2683.0 800.0Q2658.0 822 2658.0 859V867Q2658.0 904 2683.0 926.0Q2708.0 948 2750.0 948Q2792.0 948 2817.0 926.0Q2842.0 904 2842.0 867V859Q2842.0 822 2817.0 800.0Q2792.0 778 2750.0 778ZM2970.0 778Q2928.0 778 2903.0 800.0Q2878.0 822 2878.0 859V867Q2878.0 904 2903.0 926.0Q2928.0 948 2970.0 948Q3012.0 948 3037.0 926.0Q3062.0 904 3062.0 867V859Q3062.0 822 3037.0 800.0Q3012.0 778 2970.0 778ZM2741.0 948 2771.0 1108H2979.0L2829.0 948Z" fill="#000"/>
    </g>
    <g transform="translate(0, -10800.0)">
      <path d="M184 -8Q144 -8 108.0 7.0Q72 22 49.0 56.0Q26 90 26 138Q26 198 57.0 236.0Q88 274 139.0 289.0Q190 304 282 304H358V204H296Q242 204 216.0 200.5Q190 197 175.0 182.5Q160 168 160 148Q160 134 165.5 124.0Q171 114 186.0 107.0Q201 100 225 100Q253 100 275.5 109.0Q298 118 315.0 141.0Q332 164 332 196V320Q332 352 320.0 370.0Q308 388 291.0 395.0Q274 402 254 402Q232 402 215.5 395.5Q199 389 190.5 374.5Q182 360 182 340H48Q48 384 72.0 423.5Q96 463 143.0 487.5Q190 512 254 512Q322 512 370.0 487.0Q418 462 442.0 417.0Q466 372 466 300V86Q466 40 480 0H344Q332 24 332 60Q316 40 292.5 23.5Q269 7 244.5 0.0Q220 -7 184 -8ZM141.0 0 171.0 160H379.0L229.0 0ZM1239.0 -12Q1165.0 -12 1106.0 21.0Q1047.0 54 1015.5 114.0Q984.0 174 984.0 250Q984.0 326 1014.5 385.0Q1045.0 444 1101.5 478.0Q1158.0 512 1232.0 512Q1306.0 512 1360.0 478.0Q1414.0 444 1440.0 385.0Q1466.0 326 1466.0 250V212H1075.0V300H1328.0Q1328.0 344 1316.0 367.0Q1304.0 390 1284.0 401.0Q1264.0 412 1236.0 412Q1200.0 412 1176.0 394.5Q1152.0 377 1140.0 345.0Q1128.0 313 1128.0 261V241Q1128.0 191 1140.5 159.5Q1153.0 128 1177.5 111.0Q1202.0 94 1237.0 94Q1267.0 94 1285.5 103.0Q1304.0 112 1314.0 128.0Q1324.0 144 1324.0 160H1464.0Q1462.0 124 1434.5 81.0Q1407.0 38 1357.0 13.0Q1307.0 -12 1239.0 -12ZM1106.0 0 1136.0 160H1344.0L1194.0 0ZM1986.0 0V500H2124.0V200L2292.0 500H2442.0V0H2304.0V300L2136.0 0ZM2414.0 558Q2366.0 558 2328.0 571.0Q2290.0 584 2264.0 620.0Q2238.0 656 2238.0 720H2370.0Q2370.0 702 2374.0 692.0Q2378.0 682 2388.0 675.0Q2398.0 668 2414.0 668Q2430.0 668 2440.0 675.0Q2450.0 682 2454.0 692.0Q2458.0 702 2458.0 720H2590.0Q2590.0 656 2564.0 620.0Q2538.0 584 2500.0 571.0Q2462.0 558 2414.0 558ZM2990.0 -200V-80H3038.0Q3078.0 -80 3096.0 -66.5Q3114.0 -53 3126.0 -18L3132.0 0L2954.0 500H3104.0L3198.0 181L3280.0 500H3422.0L3261.0 -30Q3234.0 -119 3190.5 -159.5Q3147.0 -200 3055.0 -200ZM3069.0 0 3099.0 160H3307.0L3157.0 0Z" fill="#000"/>
    </g>
    <g transform="translate(0, -12000.0)">
      <path d="M142 160 182 280H499L539 160ZM444 720 680 0H522L344 570L166 0H20L250 720ZM740.0 560 816.0 720H984.0L1060.0 560H942.0L898.0 651L854.0 560ZM781.0 720 811.0 880H1019.0L869.0 720ZM1198.0 0V720H1664.0V594H1348.0V426H1632.0V302H1348.0V126H1664.0V0ZM1330.0 778Q1288.0 778 1263.0 800.0Q1238.0 822 1238.0 859V867Q1238.0 904 1263.0 926.0Q1288.0 948 1330.0 948Q1372.0 948 1397.0 926.0Q1422.0 904 1422.0 867V859Q1422.0 822 1397.0 800.0Q1372.0 778 1330.0 778ZM1550.0 778Q1508.0 778 1483.0 800.0Q1458.0 822 1458.0 859V867Q1458.0 904 1483.0 926.0Q1508.0 948 1550.0 948Q1592.0 948 1617.0 926.0Q1642.0 904 1642.0 867V859Q1642.0 822 1617.0 800.0Q1592.0 778 1550.0 778ZM1321.0 948 1351.0 1108H1559.0L1409.0 948ZM2243.0 0V130H2338.0Q2362.0 130 2374.0 137.0Q2386.0 144 2393.0 155.0Q2400.0 166 2406.0 180L2164.0 720H2324.0L2490.0 328L2646.0 720H2792.0L2563.0 156Q2538.0 94 2509.0 60.0Q2480.0 26 2446.0 13.0Q2412.0 0 2364.0 0ZM2482.0 778Q2434.0 778 2396.0 791.0Q2358.0 804 2332.0 840.0Q2306.0 876 2306.0 940H2438.0Q2438.0 922 2442.0 912.0Q2446.0 902 2456.0 895.0Q2466.0 888 2482.0 888Q2498.0 888 2508.0 895.0Q2518.0 902 2522.0 912.0Q2526.0 922 2526.0 940H2658.0Q2658.0 876 2632.0 840.0Q2606.0 804 2568.0 791.0Q2530.0 778 2482.0 778ZM2363.0 940 2393.0 1100H2601.0L2451.0 940Z" fill="#000"/>
    </g>
    <g transform="translate(0, -13200.0)">
      <path d="M366 -12Q270 -12 195.0 32.0Q120 76 80.0 158.0Q40 240 40 360Q40 480 80.0 562.0Q120 644 195.0 688.0Q270 732 366 732Q456 732 518.0 701.0Q580 670 612.0 618.0Q644 566 644 510H500Q500 534 487.0 556.0Q474 578 446.0 593.0Q418 608 366 608Q310 608 272.0 581.5Q234 555 214.0 500.0Q194 445 194 360Q194 278 214.0 223.0Q234 168 272.0 140.0Q310 112 366 112Q418 112 446.0 127.0Q474 142 487.0 164.0Q500 186 500 210H644Q644 154 612.0 102.0Q580 50 518.0 19.0Q456 -12 366 -12ZM780.0 -215Q738.0 -215 713.0 -193.0Q688.0 -171 688.0 -134V-126Q688.0 -89 713.0 -67.0Q738.0 -45 780.0 -45Q822.0 -45 847.0 -67.0Q872.0 -89 872.0 -126V-134Q872.0 -171 847.0 -193.0Q822.0 -215 780.0 -215ZM1437.0 -12Q1341.0 -12 1279.5 17.0Q1218.0 46 1184.0 96.0Q1150.0 146 1150.0 210H1296.0Q1296.0 178 1314.5 153.0Q1333.0 128 1363.5 117.0Q1394.0 106 1434.0 106Q1474.0 106 1500.0 120.0Q1526.0 134 1538.0 156.0Q1550.0 178 1550.0 208Q1550.0 238 1534.0 261.0Q1518.0 284 1488.0 294.0Q1458.0 304 1410.0 304H1331.0V428H1408.0Q1450.0 428 1479.5 439.0Q1509.0 450 1524.0 471.0Q1539.0 492 1539.0 522Q1539.0 552 1523.0 573.0Q1507.0 594 1483.0 604.0Q1459.0 614 1429.0 614Q1385.0 614 1355.5 601.0Q1326.0 588 1311.0 563.0Q1296.0 538 1296.0 510H1150.0Q1150.0 574 1183.5 624.0Q1217.0 674 1278.0 703.0Q1339.0 732 1433.0 732Q1511.0 732 1572.0 704.0Q1633.0 676 1661.0 629.0Q1689.0 582 1689.0 534Q1689.0 494 1674.5 461.5Q1660.0 429 1626.0 406.0Q1592.0 383 1548.0 377Q1596.0 367 1631.0 343.5Q1666.0 320 1683.0 282.0Q1700.0 244 1700.0 200Q1700.0 138 1668.0 90.0Q1636.0 42 1577.0 15.0Q1518.0 -12 1437.0 -12ZM1840.0 -215Q1798.0 -215 1773.0 -193.0Q1748.0 -171 1748.0 -134V-126Q1748.0 -89 1773.0 -67.0Q1798.0 -45 1840.0 -45Q1882.0 -45 1907.0 -67.0Q1932.0 -89 1932.0 -126V-134Q1932.0 -171 1907.0 -193.0Q1882.0 -215 1840.0 -215ZM2196.0 0 2400.0 358 2200.0 720H2372.0L2508.0 452L2655.0 720H2815.0L2616.0 372L2824.0 0H2652.0L2504.0 276L2356.0 0ZM2940.0 -215Q2898.0 -215 2873.0 -193.0Q2848.0 -171 2848.0 -134V-126Q2848.0 -89 2873.0 -67.0Q2898.0 -45 2940.0 -45Q2982.0 -45 3007.0 -67.0Q3032.0 -89 3032.0 -126V-134Q3032.0 -171 3007.0 -193.0Q2982.0 -215 2940.0 -215Z" fill="#000"/>
    </g>
  </g>
</svg>