<?xml version="1.0" encoding="UTF-8"?>
<svg xmlns="http://www.w3.org/2000/svg" width="1600" height="900" viewBox="0 0 1600 900">
  <rect width="100%" height="100%" fill="#ffffff"/>
  <text x="80" y="120" font-family="sans-serif" font-size="64" fill="#111">Akt Weights Overview</text>
  <g font-family="sans-serif" font-size="28" fill="#000">
    <text x="80" y="220">Thin 100</text>
    <text x="80" y="270">ExtraLight 200</text>
    <text x="80" y="320">Light 300</text>
    <text x="80" y="370">Regular 400</text>
    <text x="80" y="420">Medium 500</text>
    <text x="80" y="470">SemiBold 600</text>
    <text x="80" y="520">Bold 700</text>
    <text x="80" y="570">ExtraBold 800</text>
    <text x="80" y="620">Black 900</text>
  </g>
  <g>
    <rect x="360" y="200" width="1000" height="30" fill="#eaeaea"/>
    <rect x="360" y="250" width="1000" height="30" fill="#dfdfdf"/>
    <rect x="360" y="300" width="1000" height="30" fill="#d4d4d4"/>
    <rect x="360" y="350" width="1000" height="30" fill="#c9c9c9"/>
    <rect x="360" y="400" width="1000" height="30" fill="#bebebe"/>
    <rect x="360" y="450" width="1000" height="30" fill="#b3b3b3"/>
    <rect x="360" y="500" width="1000" height="30" fill="#a8a8a8"/>
    <rect x="360" y="550" width="1000" height="30" fill="#9d9d9d"/>
    <rect x="360" y="600" width="1000" height="30" fill="#929292"/>
  </g>
  <text x="80" y="720" font-family="sans-serif" font-size="24" fill="#777">Illustrative overview of named STAT weights.</text>
</svg>